# xmcd CD database file
#
# Track frame offsets:
#	150
#	20222
#	63085
#	85962
#	106260
#	150655
#	175707
#	212665
#	243687
#
# Disc length: 3570 seconds
#
# Revision: 0
# Processed by: cddbd v1.5.1PL0 Copyright (c) Steve Scherf et al.
# Submitted via: CDex 1.51
#
DISCID=710df009
DTITLE=Keith Jarrett - Expectations
DYEAR=1972
DGENRE=Jazz
TTITLE0=Vision
TTITLE1=Common mama
TTITLE2=The magician in you
TTITLE3=Roussillon
TTITLE4=Expectations
TTITLE5=Take me back
TTITLE6=The circular letter
TTITLE7=Nomads
TTITLE8=Sundance
EXTD=YEAR: 1972
EXTT0=
EXTT1=
EXTT2=
EXTT3=
EXTT4=
EXTT5=
EXTT6=
EXTT7=
EXTT8=
PLAYORDER=
